# xmcd
# 
# Track frame offsets:
#   150
#   21922
#   39876
#   61076
#   80057
#   100549
#   119121
#   140914
#   165726
#   187083
# 
# Disc length: 2741 seconds
# 
# Revision: 1
# Processed by: cddbd v1.4PL0 Copyright (c) Steve Scherf et al.
# Submitted via: VOLTOCDX V1.0.21 
# 
DISCID=890ab30a
DTITLE=real - real
DYEAR=2002
DGENRE=blues
TTITLE0=dfsa
TTITLE1=df
TTITLE2=fdsaf
TTITLE3=fdsaf
TTITLE4=fdsadf
TTITLE5=sdfsa
TTITLE6=safdsa
TTITLE7=sfddsa
TTITLE8=afdsaf
TTITLE9=fdsaf
EXTD=real
EXTT0=
EXTT1=
EXTT2=
EXTT3=
EXTT4=
EXTT5=
EXTT6=
EXTT7=
EXTT8=
EXTT9=
PLAYORDER=
